<svg id="logo" xmlns="http://www.w3.org/2000/svg" viewBox="0 0 520.11 200.9"><defs><style>.cls-1{font-size:175.61px;font-family:Another Day V2;}.cls-1,.cls-2{fill:#666;}</style></defs><title>logo_ecrit</title><g id="logo_ecrit" data-name="logo ecrit"><text class="cls-1" transform="translate(224.12 160.16)">S</text><path d="M387.83,369.81q3.8,0,4.19,4.63v29.3q0,4.19-4.85,4.19H373.29q-4.41,0-4.41-5.07v-9.91H347.3v51.55h21.59v-6.83H358.09q-4-.72-4-3.52V418.06q0-2.92,4.85-3.52h28.2q4.85,0,4.85,4.19v44.72q-0.61,4-3.74,4H327.69q-3,0-3.52-4.63V384.87" transform="translate(-324.17 -362.04)"/><path d="M437.74,402.69q2.78,0.47,2.78,2.63v59.6q-0.55,2.48-2.19,2.48H427.51a2.58,2.58,0,0,1-2.19-2.19V447.68H410.86v17.24q-0.55,2.48-2.19,2.48H397.86a2.58,2.58,0,0,1-2.19-2.19v-60q0-2.12,2.78-2.48M410.86,418v14.31h14.46V418H410.86Z" transform="translate(-324.17 -362.04)"/><path d="M495.87,402.69a3.07,3.07,0,0,1,3.07,1.9v60.58a2.53,2.53,0,0,1-2.19,2.19H485.94q-1.64,0-2.19-2.48V418h-4.53v46.85q-0.44,2.48-2.48,2.48H466.22q-2.08,0-2.34-3.51V418H459.5V464.3a3,3,0,0,1-1.9,3.07h-11q-2.08,0-2.48-2.63V405.47q0.44-2.78,2.78-2.78" transform="translate(-324.17 -362.04)"/><path d="M544.37,402.69q3.21,0,3.21,3.21v18.84q0,3.21-3.21,3.21h-8.91q-3.21,0-3.21-2.78V418H517.93v14.31h6.57q3.21,0.4,3.21,2.34V445.2q0,2.08-2.63,2.48h-7.16v4.53h14.31V435.12q0-2.78,3.21-2.78h8.91q3.21,0,3.21,3.21v28.78a3.07,3.07,0,0,1-1.9,3.07H505.07q-2.08,0-2.48-2.63v-59.3q0.44-2.78,2.78-2.78" transform="translate(-324.17 -362.04)"/><path class="cls-2" d="M661.37,459q2.35,0.5,2.35,2v9q0,1.52-2.23,2H650.14v39.58q-0.34,2.23-2.1,2.23h-8.91q-1.7,0-2-2.48V472H628q-2.23-.43-2.23-2v-9a2.31,2.31,0,0,1,2.6-2" transform="translate(-324.17 -362.04)"/><path class="cls-2" d="M702.44,459q2.35,0.4,2.35,2.23v50.51q-0.46,2.1-1.86,2.1h-9.16a2.19,2.19,0,0,1-1.86-1.86V497.14H679.66v14.61q-0.46,2.1-1.86,2.1h-9.16a2.19,2.19,0,0,1-1.86-1.86V461.11q0-1.79,2.35-2.1m10.52,13v12.13h12.26V472H679.66Z" transform="translate(-324.17 -362.04)"/><path class="cls-2" d="M743.54,459q2.35,0.5,2.35,2v9q0,1.52-2.23,2H733.39v39.58q-0.34,2.23-2.1,2.23h-8.91q-1.7,0-2-2.48V472H710.12q-2.23-.43-2.23-2v-9a2.31,2.31,0,0,1,2.6-2" transform="translate(-324.17 -362.04)"/><path class="cls-2" d="M750.81,459H760q1.42,0,1.86,1.83V512q-0.43,1.83-1.86,1.83h-9.16a2.06,2.06,0,0,1-1.86-1.61V460.62A2.06,2.06,0,0,1,750.81,459Z" transform="translate(-324.17 -362.04)"/><path class="cls-2" d="M800.33,459a2.41,2.41,0,0,1,2.72,2.72v49.48a2.56,2.56,0,0,1-1.61,2.6H767q-1.76,0-2.1-2.23V461.36q0.37-2.35,2.35-2.35m10.65,13v29h12.13V472H777.92Z" transform="translate(-324.17 -362.04)"/><path class="cls-2" d="M831.27,485.5V461.67q0.22-2.58,2-2.58h8.91q2.1,0.3,2.1,1.83v41.79c-2.54.86-15.33,4-15.33,4-1.29-1.28-9.8-14.56-9.8-14.56v17.28c-1.75.55-11.2,3-13,3.22V461.45a2.16,2.16,0,0,1,2-2.37H817" transform="translate(-324.17 -362.04)"/></g></svg>